<?xml version="1.0" encoding="UTF-8"?> <svg xmlns="http://www.w3.org/2000/svg" width="117" height="57" viewBox="0 0 117 57" fill="none"> <path fill-rule="evenodd" clip-rule="evenodd" d="M91.9799 16.2437C94.3405 15.9073 96.9734 16.1176 98.9708 17.4633C102.058 19.5659 101.558 24.6544 98.1537 26.2524C95.3846 27.6402 91.7075 27.514 89.1199 25.8319C86.8956 24.4021 86.487 21.4584 87.5311 19.2716C88.3028 17.6315 90.1641 16.6222 91.9799 16.2437ZM23.5684 0.221388C25.4296 -0.0729852 27.3363 0.0111216 29.2429 0.0111216C49.8526 0.0111216 70.4623 0.0111216 91.072 0.0111216C95.1576 0.0531749 99.2432 1.35683 102.285 3.92209C105.735 6.78172 107.868 11.0291 107.778 15.3606C107.732 20.0706 107.778 24.8226 107.778 29.5326C107.551 37.0602 100.424 43.7046 92.2977 43.9569C87.2133 44.041 82.0836 43.9569 76.9993 43.9569C71.7334 44.0831 66.5128 41.644 63.5167 37.691C62.0641 35.9668 61.2923 33.9061 60.6568 31.8455C61.9733 31.8035 63.3351 31.8035 64.697 31.8455C65.6503 34.3267 67.2392 36.6817 69.5998 38.2376C71.7334 39.6675 74.4117 40.3824 77.0447 40.3403C82.129 40.3403 87.2133 40.3403 92.3431 40.2983C98.6531 40.0459 104.055 34.6211 103.919 28.7756C103.874 24.0657 104.01 19.3557 103.919 14.6036C103.737 8.71617 97.9267 3.54361 91.5713 3.71182C79.4506 3.66977 67.2846 3.71182 55.1639 3.66976C53.8474 3.66976 52.5763 3.71182 51.3052 3.79593C54.3468 6.5294 56.5258 10.2301 56.7527 14.2252C56.8889 17.3792 56.7981 20.5332 56.7981 23.6872C56.7527 27.0515 57.1613 30.5419 55.8448 33.78C53.7112 39.6254 47.4012 43.999 40.6826 43.9149C35.4621 43.9149 30.2416 43.9569 24.9757 43.9149C17.1222 43.7466 9.94967 37.5227 9.45031 30.2055C9.35952 25.2432 9.40492 20.3229 9.40492 15.3606C9.26873 10.6927 11.7201 5.94065 15.8057 3.20718C18.2117 1.90352 20.7539 0.641922 23.5684 0.221388ZM64.924 16.3278C65.6049 16.3699 66.3313 16.2858 66.9214 16.6643C69.055 17.9679 70.8708 19.6921 73.186 20.7855C73.1406 19.3136 72.959 17.8418 72.7321 16.4119C73.5946 16.3278 74.4571 16.3278 75.365 16.3278C75.3196 19.8603 75.3196 23.3928 75.365 26.9253C74.7295 26.8412 74.0031 26.8832 73.413 26.6309C71.2794 25.5796 69.4636 24.0657 67.2846 23.2246C67.33 24.4441 67.4662 25.6637 67.6023 26.8832C66.7398 26.8832 65.8319 26.8832 64.9694 26.9253C65.0148 23.3507 65.0148 19.8603 64.924 16.3278ZM77.8164 16.3699C80.404 16.2858 82.9461 16.2437 85.5337 16.3699C85.5337 16.9586 85.5337 17.5474 85.5337 18.1361C84.535 18.052 83.5363 17.9679 82.5376 17.8838C82.5376 18.6828 82.5376 19.4818 82.5376 20.2809C83.2639 20.3229 83.9902 20.365 84.7619 20.4491C84.7619 20.9958 84.7619 21.5425 84.7619 22.0471C84.0356 22.0891 83.3093 22.0891 82.583 22.1312C82.583 23.2246 82.6284 24.2759 82.6738 25.3693C83.7633 25.2852 84.8527 25.117 85.8968 24.8647C85.8968 25.4955 85.8968 26.1263 85.8968 26.7991C83.2185 26.8832 80.5402 26.8412 77.9072 26.8412C78.0434 23.3928 77.998 19.9024 77.8164 16.3699ZM93.5687 17.6315C92.3885 18.052 92.0707 19.3557 91.8891 20.407C91.6621 22.0891 91.7529 23.9395 92.797 25.3693C93.8411 26.0842 95.3846 25.4534 95.7023 24.36C96.2925 22.6358 96.3379 20.7014 95.7477 18.9351C95.5208 18.052 94.5675 17.3371 93.5687 17.6315ZM0.915901 15.6129C2.0508 13.5103 4.27519 12.0804 6.77196 11.744C6.77196 18.4726 6.77196 25.2011 6.77196 31.9717C4.27519 32.0979 2.14159 30.4157 0.915901 28.4813C-0.355182 26.4627 0.0987763 24.0657 0.00798468 21.8368C0.144172 19.7762 -0.309786 17.5053 0.915901 15.6129ZM110.229 11.3655C113.77 11.6599 116.857 14.5195 116.948 17.8418C117.038 20.2809 116.993 22.7199 116.948 25.117C116.902 28.4813 113.861 31.5512 110.184 31.7614C110.047 28.8177 110.184 25.874 110.138 22.9302C110.184 19.1034 110.047 15.2344 110.229 11.3655Z" fill="url(#paint0_linear_26_93)"></path> <path fill-rule="evenodd" clip-rule="evenodd" d="M22.6605 53.9235V46.2698H20.1183L18.3933 50.8537C18.2571 51.2321 18.1663 51.6106 18.0755 51.9891V52.0732H17.8939V51.9891C17.8485 51.6106 17.7123 51.2321 17.5761 50.8957L15.8511 46.3119H13.2181V53.9656H14.7616V49.7182C14.7616 49.0454 14.7162 48.3725 14.6708 47.6997V47.6155H14.8978V47.6997C14.9432 48.0361 15.034 48.4566 15.1702 48.793L17.1676 54.0077H18.5748L20.5269 48.751C20.6631 48.4146 20.7084 48.0361 20.7992 47.7417V47.6576H21.0262V47.7417C20.9808 48.2884 20.9354 48.8771 20.9354 49.4238V54.0497L22.6605 53.9235ZM29.4698 53.9235V50.6434C29.4698 49.0874 28.6527 48.3305 26.9731 48.3305C26.5645 48.3305 26.1559 48.3725 25.7474 48.4566C25.4296 48.5407 25.0664 48.6248 24.7487 48.751V49.8444C25.3388 49.5079 26.0198 49.3397 26.7007 49.3397C27.427 49.3397 27.881 49.6341 27.881 50.349V50.4331L26.1559 50.6434C24.9757 50.7695 24.1585 51.2742 24.1585 52.4517C24.1585 52.9143 24.2947 53.2927 24.6125 53.6292C24.9757 53.9656 25.4296 54.0497 25.929 54.0497C26.7007 54.0497 27.2454 53.7553 27.654 53.1666L27.6994 53.1245H27.881V53.9235H29.4698ZM27.881 51.7368C27.881 52.0732 27.7902 52.4096 27.5178 52.6619C27.2908 52.9143 26.9731 53.0404 26.6099 53.0404C26.3829 53.0404 26.1105 52.9984 25.929 52.8302C25.7474 52.704 25.6566 52.4937 25.6566 52.2835C25.6566 51.7368 26.1106 51.4845 26.6553 51.4424L27.881 51.3162V51.7368ZM36.9147 53.9235L34.645 51.0219L36.7332 48.4987H34.7811L32.9653 51.106H32.7837V45.8073H31.1041V53.9235H32.7837V51.148H32.9653L34.9173 53.9235H36.9147ZM43.134 51.6106V50.9798C43.134 50.2649 42.9524 49.592 42.453 49.0454C41.9537 48.5407 41.2274 48.3305 40.4556 48.3305C39.6385 48.3305 38.9576 48.5828 38.3674 49.1295C37.7319 49.7182 37.5049 50.4752 37.5049 51.2742C37.5049 52.0312 37.6865 52.7461 38.2766 53.2927C38.8668 53.8394 39.6839 54.0077 40.501 54.0077C41.182 54.0077 41.9537 53.9235 42.5892 53.6292V52.5778C42.0899 52.8302 41.4997 52.9563 40.9096 52.9563C39.9563 52.9563 39.2299 52.6199 39.1391 51.6527V51.5686H43.134V51.6106ZM41.5905 50.7275H39.1391V50.6434C39.1845 50.307 39.3207 50.0126 39.5477 49.7182C39.7747 49.4659 40.0471 49.3397 40.4102 49.3397C41.2728 49.3397 41.5451 49.9285 41.5451 50.6434V50.7275H41.5905ZM53.3026 48.4987H51.6684L50.5335 51.8629C50.4427 52.1153 50.3973 52.3255 50.3519 52.5778V52.6619H50.1249V52.5778C50.0795 52.3255 50.0341 52.0732 49.9434 51.8629L48.8538 48.4987H46.9926L49.3986 54.0077L49.0808 54.7226C48.8992 55.1851 48.5361 55.3954 47.9913 55.3954C47.719 55.3954 47.492 55.3534 47.265 55.2693V56.4468C47.5828 56.5309 47.9459 56.5729 48.2637 56.5729C49.6256 56.5729 50.3973 55.5216 50.8513 54.4282L53.3026 48.4987ZM57.0705 54.0497C57.933 54.0497 58.7955 53.8394 59.4311 53.2507C60.0666 52.6619 60.2936 51.905 60.2936 51.106C60.2936 50.349 60.0666 49.6341 59.4765 49.0874C58.8409 48.5407 58.0238 48.3305 57.1613 48.3305C56.2988 48.3305 55.4362 48.5407 54.8007 49.0874C54.1652 49.6341 53.9382 50.3911 53.9382 51.1901C53.9382 51.9891 54.1652 52.704 54.7553 53.2507C55.3908 53.8815 56.208 54.0497 57.0705 54.0497ZM57.1159 49.5079C58.2054 49.5079 58.5686 50.2649 58.5686 51.148C58.5686 52.0732 58.2508 52.8722 57.1159 52.8722C55.981 52.8722 55.6178 52.1153 55.6178 51.1901C55.6178 50.7695 55.7086 50.307 56.0264 49.9285C56.2988 49.6341 56.6619 49.5079 57.1159 49.5079ZM67.2391 53.9235V48.4987H65.5595V51.6106C65.5595 51.947 65.4687 52.2835 65.2417 52.5358C65.0148 52.7881 64.697 52.8722 64.3792 52.8722C63.5167 52.8722 63.2897 52.2835 63.2897 51.6106V48.4566H61.6101V51.7368C61.6101 53.0404 62.064 54.0077 63.6075 54.0077C64.3792 54.0077 64.9694 53.6712 65.3779 53.0404L65.4233 52.9984H65.6049V53.8394H67.2391V53.9235ZM71.9149 53.7974C72.4597 53.9656 73.0498 54.0497 73.6854 54.0497C74.0485 54.0497 74.3663 54.0077 74.7295 53.9656C75.0472 53.9236 75.3196 53.7974 75.592 53.6712C75.819 53.5451 76.0459 53.3348 76.1821 53.1245C76.3637 52.8722 76.4091 52.6199 76.4091 52.3255C76.4091 52.1153 76.3637 51.947 76.3183 51.7368C76.2275 51.5686 76.1367 51.4424 76.0005 51.3162C75.8644 51.1901 75.6828 51.0639 75.5012 50.9798C75.2742 50.8957 75.0472 50.8116 74.8202 50.7275C74.6841 50.6854 74.5479 50.6434 74.4117 50.6013C74.2755 50.5593 74.1393 50.5172 74.0031 50.4752C73.8669 50.4331 73.7761 50.349 73.6854 50.2649C73.5946 50.1808 73.5492 50.0546 73.5492 49.9285C73.5492 49.8444 73.5946 49.7603 73.64 49.6762C73.6854 49.592 73.7761 49.55 73.8669 49.5079C73.9577 49.4659 74.0939 49.4238 74.1847 49.4238C74.3209 49.3818 74.4117 49.3818 74.5479 49.3818C74.8203 49.3818 75.0926 49.4238 75.365 49.4659C75.592 49.5079 75.819 49.592 76.0005 49.6762V48.5407C75.7736 48.4987 75.5012 48.4146 75.2742 48.4146C75.0018 48.3725 74.7295 48.3725 74.4571 48.3725C74.1393 48.3725 73.8215 48.4146 73.5038 48.4566C73.2314 48.4987 72.959 48.6248 72.6866 48.751C72.4597 48.8771 72.2781 49.0454 72.1419 49.2556C72.0057 49.5079 71.9149 49.7603 71.9149 50.0126C71.9149 50.1808 71.9149 50.3911 72.0057 50.5593C72.0511 50.7275 72.1419 50.8537 72.2781 50.9798C72.4143 51.106 72.5505 51.2321 72.732 51.3162C72.9136 51.4003 73.1406 51.5265 73.3676 51.5686C73.5038 51.6106 73.6854 51.6527 73.8215 51.6947C73.9577 51.7368 74.1393 51.7788 74.2755 51.8629C74.4117 51.905 74.5479 51.9891 74.6387 52.0732C74.7295 52.1573 74.8202 52.2835 74.8202 52.4096C74.8202 52.6199 74.6841 52.7881 74.4571 52.8722C74.2301 52.9984 73.9123 52.9984 73.64 52.9984C73.3222 52.9984 73.0498 52.9563 72.732 52.8722C72.4597 52.7881 72.1873 52.704 71.9149 52.5778V53.7974ZM81.0849 53.8815V52.7881C80.9033 52.8722 80.7671 52.8722 80.5855 52.8722C79.95 52.8722 79.723 52.4517 79.723 51.905V49.55H81.0849V48.4566H79.723V46.7745L78.0434 47.2371V48.4566H77.0446V49.55H78.0434V52.1994C78.0434 53.3769 78.6335 54.0077 79.9046 54.0077C80.3131 54.0497 80.7671 54.0497 81.0849 53.8815ZM87.8942 53.9235V48.4987H86.2146V51.6106C86.2146 51.947 86.1238 52.2835 85.8968 52.5358C85.6698 52.7881 85.3521 52.8722 85.0343 52.8722C84.1718 52.8722 83.9448 52.2835 83.9448 51.6106V48.4566H82.2652V51.7368C82.2652 53.0404 82.7191 54.0077 84.2626 54.0077C85.0343 54.0077 85.6245 53.6712 86.033 53.0404L86.0784 52.9984H86.26V53.8394H87.8942V53.9235ZM95.3846 53.9235V45.8073H93.7049V49.1295H93.5233L93.4779 49.0874C93.1602 48.5407 92.57 48.3725 91.9345 48.3725C91.1627 48.3725 90.5272 48.6248 90.0278 49.1715C89.4831 49.8023 89.3015 50.5593 89.3015 51.3583C89.3015 52.0732 89.4377 52.8302 89.9824 53.3769C90.4364 53.8815 91.0266 54.0918 91.7529 54.0918C92.5246 54.0918 93.1148 53.8394 93.5233 53.2086L93.5687 53.1666H93.7503V53.9235H95.3846ZM93.7503 51.2742C93.7503 51.6947 93.6595 52.1153 93.3871 52.4517C93.1148 52.7461 92.797 52.9143 92.3884 52.9143C91.9799 52.9143 91.6167 52.7881 91.3897 52.4937C91.1173 52.1573 91.0266 51.6947 91.0266 51.3162C91.0266 50.8536 91.1173 50.3911 91.3897 50.0126C91.6621 49.6762 91.9799 49.5079 92.4338 49.5079C92.797 49.5079 93.1602 49.6341 93.3871 49.8864C93.6595 50.1387 93.7503 50.4752 93.7503 50.8537V51.2742ZM102.693 48.4987H101.059L99.9241 51.8629C99.8333 52.1153 99.7879 52.3255 99.7425 52.5778V52.6619H99.561V52.5778C99.5156 52.3255 99.4702 52.0732 99.3794 51.8629L98.2899 48.4987H96.4287L98.8346 54.0077L98.5169 54.7226C98.3353 55.1851 97.9721 55.3954 97.4274 55.3954C97.155 55.3954 96.928 55.3534 96.701 55.2693V56.4468C97.0188 56.5309 97.382 56.5729 97.6997 56.5729C99.0616 56.5729 99.8333 55.5216 100.287 54.4282L102.693 48.4987Z" fill="#B2D7F2"></path> <defs> <linearGradient id="paint0_linear_26_93" x1="-0.316195" y1="21.9754" x2="117.048" y2="21.9754" gradientUnits="userSpaceOnUse"> <stop stop-color="#00D0EB"></stop> <stop offset="1" stop-color="#CAF3ED"></stop> </linearGradient> </defs> </svg> 